<svg width="20" height="20" viewBox="0 0 20 20" fill="none" xmlns="http://www.w3.org/2000/svg">
<path d="M3.98438 13.9688C5.45312 16.125 7.45312 17.2031 9.98438 17.2031C12.5156 17.2031 14.5156 16.125 15.9844 13.9688C15.9531 13.0938 15.25 12.3594 13.875 11.7656C12.5 11.1719 11.2031 10.875 9.98438 10.875C8.76562 10.875 7.46875 11.1719 6.09375 11.7656C4.71875 12.3281 4.01562 13.0625 3.98438 13.9688ZM12.0938 3.89062C11.5 3.29688 10.7969 3 9.98438 3C9.17188 3 8.46875 3.29688 7.875 3.89062C7.28125 4.48438 6.98438 5.1875 6.98438 6C6.98438 6.8125 7.28125 7.51562 7.875 8.10938C8.46875 8.70312 9.17188 9 9.98438 9C10.7969 9 11.5 8.70312 12.0938 8.10938C12.6875 7.51562 12.9844 6.8125 12.9844 6C12.9844 5.1875 12.6875 4.48438 12.0938 3.89062ZM2.90625 2.95312C4.875 0.984375 7.23438 0 9.98438 0C12.7344 0 15.0781 0.984375 17.0156 2.95312C18.9844 4.89062 19.9688 7.23438 19.9688 9.98438C19.9688 12.7344 18.9844 15.0938 17.0156 17.0625C15.0781 19 12.7344 19.9688 9.98438 19.9688C7.23438 19.9688 4.875 19 2.90625 17.0625C0.96875 15.0938 0 12.7344 0 9.98438C0 7.23438 0.96875 4.89062 2.90625 2.95312Z" fill="white"/>
</svg>
