<svg width="33" height="58" viewBox="0 0 33 58" fill="none" xmlns="http://www.w3.org/2000/svg">
<path d="M17.7926 25.526C20.023 26.1302 21.8479 26.7344 23.2673 27.3385C24.788 27.9427 26.3594 28.7986 27.9816 29.9063C29.6037 30.9132 30.8203 32.2222 31.6313 33.8333C32.5438 35.4444 33 37.3576 33 39.5729C33 42.6944 31.9355 45.2622 29.8065 47.276C27.7788 49.1892 25.0415 50.4479 21.5945 51.0521V58H11.8618V51.0521C8.51613 50.3472 5.72811 48.9375 3.4977 46.8229C1.36866 44.7083 0.202765 41.9896 0 38.6667H7.14747C7.553 43.1979 10.7465 45.4635 16.7281 45.4635C19.871 45.4635 22.1014 44.9097 23.4194 43.8021C24.8387 42.5938 25.5484 41.2344 25.5484 39.724C25.5484 36.099 22.3041 33.4809 15.8157 31.8698C5.67742 29.5538 0.608295 25.1233 0.608295 18.5781C0.608295 15.658 1.67281 13.191 3.80184 11.1771C5.93088 9.0625 8.61751 7.65278 11.8618 6.94792V0H21.5945V7.09896C24.9401 7.90451 27.4747 9.41493 29.1982 11.6302C31.023 13.8455 31.9862 16.4132 32.0876 19.3333H24.9401C24.7373 14.8021 22 12.5365 16.7281 12.5365C14.0922 12.5365 11.9631 13.0903 10.341 14.1979C8.82028 15.3056 8.05991 16.7656 8.05991 18.5781C8.05991 21.4983 11.3041 23.8142 17.7926 25.526Z" fill="#5C78D4"/>
</svg>
