<svg width="59" height="76" viewBox="0 0 59 76" fill="none" xmlns="http://www.w3.org/2000/svg">
<path d="M54.3421 23.2851C57.4474 27.705 59 32.6099 59 38C59 45.5461 56.0673 52.0681 50.2018 57.566C44.4513 62.956 37.5507 65.6511 29.5 65.6511V76L14.8363 62.0936L29.5 48.3489V58.6979C35.5955 58.6979 40.771 56.7035 45.0263 52.7149C49.3967 48.6184 51.5819 43.7135 51.5819 38C51.5819 34.766 50.7193 31.5319 48.9942 28.2979L54.3421 23.2851ZM29.5 17.3021C23.4045 17.3021 18.1715 19.3504 13.8012 23.4468C9.54581 27.4355 7.41813 32.2865 7.41813 38C7.41813 41.4496 8.2807 44.6837 10.0058 47.7021L4.65789 52.7149C1.55263 48.295 0 43.3901 0 38C0 30.4539 2.87524 23.9858 8.62573 18.5957C14.4912 13.0979 21.4493 10.3489 29.5 10.3489V0L44.1637 13.9064L29.5 27.6511V17.3021Z" fill="#5C78D4"/>
</svg>
