<svg width="53" height="48" viewBox="0 0 53 48" fill="none" xmlns="http://www.w3.org/2000/svg">
<path d="M42.4249 32V37.375H37.0751V32H42.4249ZM42.4249 21.375V26.625H37.0751V21.375H42.4249ZM47.7747 42.625V16H26.5V21.375H31.8498V26.625H26.5V32H31.8498V37.375H26.5V42.625H47.7747ZM21.1502 10.625V5.375H15.9249V10.625H21.1502ZM21.1502 21.375V16H15.9249V21.375H21.1502ZM21.1502 32V26.625H15.9249V32H21.1502ZM21.1502 42.625V37.375H15.9249V42.625H21.1502ZM10.5751 10.625V5.375H5.22535V10.625H10.5751ZM10.5751 21.375V16H5.22535V21.375H10.5751ZM10.5751 32V26.625H5.22535V32H10.5751ZM10.5751 42.625V37.375H5.22535V42.625H10.5751ZM26.5 10.625H53V48H0V0H26.5V10.625Z" fill="white"/>
</svg>
