<svg width="41" height="59" viewBox="0 0 41 59" fill="none" xmlns="http://www.w3.org/2000/svg">
<path d="M28.8926 32.6854C33.1119 29.7308 35.2215 25.7144 35.2215 20.6362C35.2215 16.5736 33.7539 13.1111 30.8188 10.2488C27.9754 7.29421 24.5358 5.8169 20.5 5.8169C16.4642 5.8169 12.9787 7.29421 10.0436 10.2488C7.20022 13.1111 5.77852 16.5736 5.77852 20.6362C5.77852 22.7598 6.37472 24.9757 7.56711 27.284C8.85123 29.5923 10.3647 31.3928 12.1074 32.6854L14.5839 34.4859V41.2723H26.4161V34.4859L28.8926 32.6854ZM5.91611 6.0939C9.9519 2.0313 14.8132 0 20.5 0C26.1868 0 31.0022 2.0313 34.9463 6.0939C38.9821 10.0642 41 14.9116 41 20.6362C41 27.838 38.0649 33.4703 32.1946 37.5329V44.3192C32.1946 45.1502 31.9195 45.8427 31.3691 46.3967C30.8188 46.9507 30.1309 47.2277 29.3054 47.2277H11.6946C10.8691 47.2277 10.1812 46.9507 9.63087 46.3967C9.08054 45.8427 8.80537 45.1502 8.80537 44.3192V37.5329C2.93512 33.4703 0 27.838 0 20.6362C0 14.9116 1.97204 10.0642 5.91611 6.0939ZM11.6946 56.0915V53.1831H29.3054V56.0915C29.3054 56.9225 29.0302 57.615 28.4799 58.169C27.9295 58.723 27.2416 59 26.4161 59H14.5839C13.7584 59 13.0705 58.723 12.5201 58.169C11.9698 57.615 11.6946 56.9225 11.6946 56.0915Z" fill="white"/>
</svg>
