<svg width="15" height="13" viewBox="0 0 15 13" fill="none" xmlns="http://www.w3.org/2000/svg">
<path d="M13.5 3.02344V1.51172L7.48828 5.27344L1.47656 1.51172V3.02344L7.48828 6.75L13.5 3.02344ZM13.5 0C13.8984 0 14.2383 0.152344 14.5195 0.457031C14.8242 0.761719 14.9766 1.11328 14.9766 1.51172V10.5117C14.9766 10.9102 14.8242 11.2617 14.5195 11.5664C14.2383 11.8711 13.8984 12.0234 13.5 12.0234H1.47656C1.07812 12.0234 0.726562 11.8711 0.421875 11.5664C0.140625 11.2617 0 10.9102 0 10.5117V1.51172C0 1.11328 0.140625 0.761719 0.421875 0.457031C0.726562 0.152344 1.07812 0 1.47656 0H13.5Z" fill="white"/>
</svg>
