<svg width="80" height="84" viewBox="0 0 80 84" fill="none" xmlns="http://www.w3.org/2000/svg">
<g filter="url(#filter0_dd)">
<path d="M10 15.4154C10 12.4246 12.4246 10 15.4154 10H64.8923C67.8831 10 70.3077 12.4246 70.3077 15.4154V68.5846C70.3077 71.5754 67.8831 74 64.8923 74H15.4154C12.4245 74 10 71.5755 10 68.5846V15.4154Z" fill="#E6E7EE"/>
</g>
<path d="M35.8675 53.862C34.5515 53.862 33.5528 53.5213 32.8715 52.84C32.1902 52.1587 31.8495 51.1553 31.8495 49.83V43.88H33.2775V49.928C33.2775 50.8333 33.4922 51.5193 33.9215 51.986C34.3602 52.4527 35.0088 52.686 35.8675 52.686C36.7168 52.686 37.3608 52.4527 37.7995 51.986C38.2382 51.5193 38.4575 50.8333 38.4575 49.928V43.88H39.8855V49.83C39.8855 51.146 39.5402 52.1493 38.8495 52.84C38.1682 53.5213 37.1742 53.862 35.8675 53.862ZM45.605 46.75C46.193 46.75 46.7157 46.8993 47.173 47.198C47.6397 47.4967 47.999 47.9167 48.251 48.458C48.5124 48.9993 48.643 49.6247 48.643 50.334C48.643 51.034 48.517 51.65 48.265 52.182C48.013 52.714 47.6537 53.1247 47.187 53.414C46.7297 53.7033 46.2024 53.848 45.605 53.848C45.0917 53.848 44.639 53.7407 44.247 53.526C43.855 53.302 43.5564 52.9847 43.351 52.574V56.27H41.937V46.918H43.351V48.038C43.5564 47.6273 43.855 47.31 44.247 47.086C44.639 46.862 45.0917 46.75 45.605 46.75ZM45.269 52.728C45.885 52.728 46.361 52.5227 46.697 52.112C47.033 51.692 47.201 51.0993 47.201 50.334C47.201 49.5593 47.0284 48.9573 46.683 48.528C46.347 48.0987 45.8757 47.884 45.269 47.884C44.653 47.884 44.177 48.094 43.841 48.514C43.5144 48.934 43.351 49.5313 43.351 50.306C43.351 51.0807 43.5144 51.678 43.841 52.098C44.177 52.518 44.653 52.728 45.269 52.728Z" fill="#8B9EB0"/>
<path d="M48.5 35.75L39.75 27L31 35.75" stroke="#8B9EB0" stroke-width="1.23077" stroke-linecap="round" stroke-linejoin="round"/>
<defs>
<filter id="filter0_dd" x="0.769231" y="0.769231" width="78.7692" height="82.4615" filterUnits="userSpaceOnUse" color-interpolation-filters="sRGB">
<feFlood flood-opacity="0" result="BackgroundImageFix"/>
<feColorMatrix in="SourceAlpha" type="matrix" values="0 0 0 0 0 0 0 0 0 0 0 0 0 0 0 0 0 0 127 0"/>
<feOffset dx="3.07692" dy="3.07692"/>
<feGaussianBlur stdDeviation="3.07692"/>
<feColorMatrix type="matrix" values="0 0 0 0 0.745098 0 0 0 0 0.803922 0 0 0 0 0.886275 0 0 0 1 0"/>
<feBlend mode="normal" in2="BackgroundImageFix" result="effect1_dropShadow"/>
<feColorMatrix in="SourceAlpha" type="matrix" values="0 0 0 0 0 0 0 0 0 0 0 0 0 0 0 0 0 0 127 0"/>
<feOffset dx="-3.07692" dy="-3.07692"/>
<feGaussianBlur stdDeviation="3.07692"/>
<feColorMatrix type="matrix" values="0 0 0 0 1 0 0 0 0 1 0 0 0 0 1 0 0 0 1 0"/>
<feBlend mode="normal" in2="effect1_dropShadow" result="effect2_dropShadow"/>
<feBlend mode="normal" in="SourceGraphic" in2="effect2_dropShadow" result="shape"/>
</filter>
</defs>
</svg>
