<svg width="66" height="42" viewBox="0 0 66 42" fill="none" xmlns="http://www.w3.org/2000/svg">
<path d="M44.9362 23.9597C47.5574 23.9597 50.4128 24.3356 53.5021 25.0872C56.5915 25.8389 59.4468 27.0604 62.0681 28.7517C64.6894 30.443 66 32.3691 66 34.5302V42H48.0255V34.5302C48.0255 30.396 46.0596 26.9195 42.1277 24.1007C42.783 24.0067 43.7192 23.9597 44.9362 23.9597ZM12.4979 25.0872C15.5872 24.3356 18.4426 23.9597 21.0638 23.9597C23.6851 23.9597 26.5404 24.3356 29.6298 25.0872C32.7192 25.8389 35.5277 27.0604 38.0553 28.7517C40.6766 30.443 41.9872 32.3691 41.9872 34.5302V42H0V34.5302C0 32.3691 1.31064 30.443 3.93191 28.7517C6.55319 27.0604 9.40851 25.8389 12.4979 25.0872ZM27.2426 15.3624C25.5574 17.1477 23.4979 18.0403 21.0638 18.0403C18.6298 18.0403 16.5234 17.1477 14.7447 15.3624C12.966 13.5772 12.0766 11.4631 12.0766 9.02013C12.0766 6.57718 12.966 4.46309 14.7447 2.67785C16.5234 0.892617 18.6298 0 21.0638 0C23.4979 0 25.5574 0.892617 27.2426 2.67785C29.0213 4.46309 29.9106 6.57718 29.9106 9.02013C29.9106 11.4631 29.0213 13.5772 27.2426 15.3624ZM51.2553 15.3624C49.4766 17.1477 47.3702 18.0403 44.9362 18.0403C42.5021 18.0403 40.3957 17.1477 38.617 15.3624C36.8383 13.5772 35.9489 11.4631 35.9489 9.02013C35.9489 6.57718 36.8383 4.46309 38.617 2.67785C40.3957 0.892617 42.5021 0 44.9362 0C47.3702 0 49.4766 0.892617 51.2553 2.67785C53.034 4.46309 53.9234 6.57718 53.9234 9.02013C53.9234 11.4631 53.034 13.5772 51.2553 15.3624Z" fill="white"/>
</svg>
