<svg width="36" height="36" viewBox="0 0 36 36" fill="none" xmlns="http://www.w3.org/2000/svg">
<path d="M7.21875 15.563C10.2188 21.3755 14.625 25.7817 20.4375 28.7817L24.8438 24.3755C25.4688 23.7505 26.1562 23.5942 26.9062 23.9067C29.1562 24.6567 31.5312 25.0317 34.0312 25.0317C34.5938 25.0317 35.0625 25.2192 35.4375 25.5942C35.8125 25.9692 36 26.438 36 27.0005V34.0317C36 34.5942 35.8125 35.063 35.4375 35.438C35.0625 35.813 34.5938 36.0005 34.0312 36.0005C24.6562 36.0005 16.625 32.688 9.9375 26.063C3.3125 19.3755 0 11.3442 0 1.96924C0 1.40674 0.1875 0.937988 0.5625 0.562988C0.9375 0.187988 1.40625 0.000488281 1.96875 0.000488281H9C9.5625 0.000488281 10.0312 0.187988 10.4062 0.562988C10.7812 0.937988 10.9688 1.40674 10.9688 1.96924C10.9688 4.46924 11.3438 6.84424 12.0938 9.09424C12.3438 9.90674 12.1875 10.5942 11.625 11.1567L7.21875 15.563Z" fill="black" fill-opacity="0.85"/>
</svg>
